<svg preserveAspectRatio="none" width="100%" height="100%" overflow="visible" style="display: block;" viewBox="0 0 194.889 110.179" fill="none" xmlns="http://www.w3.org/2000/svg">
<g id="Vector">
<path d="M21.7302 11.4436C20.408 12.1176 11.3592 17.1428 11.2342 17.1521C12.8175 18.2936 11.247 17.9823 12.7537 19.3288C14.2675 20.6816 16.1175 21.4831 17.7693 22.6333C18.8303 23.3721 20.5975 25.6816 21.6412 26.1641L21.9435 25.9788L21.3915 24.7611C22.0713 24.8949 22.7767 26.6263 23.539 27.0856C25.5052 28.2708 32.4573 31.4233 32.999 33.4533L33.505 33.4746L33.543 34.3511L34.3068 34.9378C33.9508 35.2363 33.5757 35.5766 33.0357 35.3858C28.866 33.9136 21.0295 31.2629 17.2252 29.3959C14.611 28.5841 3.42299 24.2071 1.57025 22.8188C-0.499505 26.7476 -0.0775012 42.8643 0.358499 47.9558C0.535249 50.0186 1.27401 52.9298 1.44151 55.2561C2.14151 49.7716 4.35825 36.6239 13.4548 43.6919C20.073 48.8344 21.4585 61.4581 23.2172 69.0676C24.1182 73.1414 25.2538 73.8654 28.5538 76.0059C33.2745 76.6051 38.7017 78.6896 43.332 80.1428C53.4132 83.4006 63.4758 86.7163 73.519 90.0896C77.4075 91.4083 83.508 93.7621 87.2483 94.8126C86.1233 91.1441 86.1058 84.5769 86.2305 80.7794C86.4543 73.9846 88.745 65.7061 97.1553 66.1766L97.4445 65.7886L97.9762 66.3238C98.5955 66.0473 98.7065 66.0101 99.1627 65.5144L98.9268 65.8984L99.1412 65.5048L98.1697 65.0453C99.5097 64.4338 105.481 69.4896 105.935 70.9791C106.775 72.6416 107.642 72.9434 108.16 73.8749C110.3 77.7281 113.356 78.3699 117.445 79.1399C120.869 78.5259 123.793 80.5149 125.82 80.1399C124.423 78.8901 123.312 78.9608 122.15 77.4923C122.097 73.3106 119.582 74.7488 117.697 72.9161C116.22 71.4806 111.602 67.5798 110.903 66.1046C111.15 65.7016 111.2 65.6838 111.251 65.2021C110.399 65.1283 109.967 66.4326 108.828 66.5873C108.201 66.6726 104.917 66.4248 104.556 66.2673C104.511 65.6256 104.542 65.4741 104.252 64.9208L103.262 64.8074C102.738 63.6529 102.446 63.2611 101.826 62.2629C101.33 61.4629 102.965 60.8691 103.456 59.6241C103.579 56.6011 96.8723 56.8171 95.7633 54.9553C93.0708 54.0116 90.488 53.1254 87.7907 52.1419C86.2907 51.9836 78.282 49.3833 77.971 48.2053C79.3603 47.1083 80.1382 48.2201 80.7212 46.3451C79.8505 45.7291 80.1157 45.9709 79.6847 44.8906C78.7482 44.6619 74.4022 44.5426 73.1905 44.4891L73.0765 44.7791L73.534 45.3986C73.1723 45.2966 77.3575 45.0276 78.08 45.0888C76.9997 46.4153 72.8613 45.9168 71.385 46.1123C70.9038 46.1761 69.0435 46.9301 68.415 47.1461C69.5205 46.6238 70.2595 46.2686 71.2922 45.6238L71.1453 45.3471C68.7168 45.3511 64.9295 44.1986 63.441 44.4206C63.1385 44.7584 63.287 44.6091 62.77 44.7766C61.34 43.9991 59.9375 42.3946 61.093 40.8083C61.509 40.2283 61.5565 39.6831 61.704 38.9781C52.6625 37.1521 38.8745 29.7781 30.4022 25.3953C26.909 23.5881 22.791 17.1456 23.6253 12.9584C23.553 11.9549 22.5527 11.8041 21.7302 11.4436Z" fill="var(--fill-0, #EFEFEF)"/>
<path d="M152.806 37.7593C146.524 39.8766 130.771 42.2483 124.009 42.9658L124.078 43.3424C122.904 43.6296 119.145 44.2864 118.036 44.2154C118.499 44.3314 119.303 44.4576 119.596 44.7741C118.242 45.2691 114.412 45.1886 112.909 44.5873C109.703 45.1506 97.7852 46.0486 95.8287 46.8626C95.6555 47.7601 95.4898 47.9541 95.0048 48.7174L95.15 48.8491C94.885 49.0638 94.8638 49.1338 94.5368 49.1863L96.438 49.9974C95.4782 50.0019 94.2735 49.7733 93.3493 49.5171L92.1445 50.1054L92.395 50.3816C93.5915 50.3793 94.6128 49.8716 95.2985 50.2076C95.267 50.7086 95.1535 50.6376 94.6445 51.1099L94.9717 51.4386C92.9192 51.2834 90.95 50.6469 88.8955 50.7636C87.8365 50.8239 87.1975 50.8214 86.1457 50.6889C85.4702 50.4459 84.8645 50.5583 84.1365 50.6091L84.4432 50.8653C85.5157 50.7491 86.9292 51.5246 87.7907 52.1419C90.488 53.1254 93.0708 54.0116 95.7633 54.9553C100.084 56.0196 106.303 59.2446 110.71 60.9356C117.737 62.7309 123.663 64.2663 130.037 67.8368C131.295 68.5416 133.073 68.9361 134.391 69.5149C134.896 68.5871 134.572 68.8711 135.646 68.4918C136.593 68.6861 136.311 68.4976 136.851 69.1143C136.603 69.6298 136.584 69.6051 136.062 69.7976C135.833 69.8818 135.922 69.8558 135.675 69.8916C138.022 70.9088 140.831 72.7284 142.568 73.4394C143.406 73.5044 144.05 73.5971 144.661 73.0076C144.465 72.5656 144.251 72.1313 144.021 71.7061C145.397 71.1048 147.353 73.0891 148.298 73.0001C153.405 72.5193 158.678 73.3146 163.726 72.4391C166.011 72.0426 168.316 70.6881 170.501 70.4199C174.258 69.9586 178.351 70.2456 181.639 68.0288C182.633 67.3511 182.346 66.0186 182.498 64.7503L182.827 64.7154L183.261 65.1368C183.641 66.8713 183.797 66.4123 183.202 67.7873L183.575 68.0176C184.084 67.3841 184.154 67.3126 184.922 67.0551C185.301 64.7581 185.147 59.2854 184.361 56.9766C183.232 55.6649 183.379 53.0466 183.544 51.4213C182.663 50.5726 182.405 50.3746 181.36 49.7481C178.857 48.2474 175.205 47.3803 172.796 46.1963C167.562 43.6246 162.457 41.1541 156.949 39.1578C155.735 38.7181 154.052 37.9173 152.806 37.7593ZM164.915 68.5554C163.981 68.0364 162.994 67.8053 162.408 66.9818C162.849 66.1273 163.874 66.2381 164.749 66.2409C165.83 66.7659 166.186 67.6041 166.094 68.8428L165.795 69.1016C165.358 68.9096 165.279 68.8939 164.915 68.5554Z" fill="var(--fill-0, #EFEFEF)"/>
<path d="M164.749 66.2409C163.874 66.2381 162.849 66.1273 162.408 66.9818C162.994 67.8053 163.981 68.0364 164.915 68.5554C165.279 68.8939 165.358 68.9096 165.795 69.1016L166.094 68.8428C166.186 67.6041 165.83 66.7659 164.749 66.2409Z" fill="var(--fill-0, #EFEFEF)"/>
<path d="M121.136 8.03085C120.896 9.35585 120.681 9.33185 121.115 10.3866C121.847 10.5148 122.311 10.4988 122.792 11.0341C121.794 11.8381 117.836 11.7506 116.857 10.9851L116.821 10.7678C115.629 10.8611 114.437 10.9478 113.244 11.0281C113.699 11.1351 114.177 11.2578 114.636 11.3286C112.352 11.4996 111.006 12.1948 108.747 12.5816C107.076 12.8676 103.003 12.4598 101.781 12.6558C99.9733 12.9453 97.345 15.2886 94.6315 13.7176L94.5845 13.4376C90.8807 13.7496 85.2463 14.9488 81.4118 15.4748C78.9993 15.8056 71.9307 16.8711 70.0322 17.4923C70.8922 18.8443 73.2005 21.2254 74.355 22.5156C76.9653 25.4326 80.3212 29.7031 82.1397 33.1336C83.5097 35.2171 89.2435 44.5563 89.9112 46.5453C90.807 47.3463 90.532 47.1114 91.909 47.2656L95.8287 46.8626C97.7852 46.0486 109.703 45.1506 112.909 44.5873C116.392 44.2186 120.499 43.4973 124.009 42.9658C130.771 42.2483 146.524 39.8766 152.806 37.7593C151.111 37.1601 150.459 35.5653 149.571 34.0088C147.783 31.9803 146.037 29.8194 144.234 27.7584C142.197 26.4166 135.711 19.7106 133.194 17.5551C131.079 15.7678 128.91 14.0458 126.689 12.3913C124.013 10.4336 123.435 10.4113 121.136 8.03085Z" fill="var(--fill-0, #EFEFEF)"/>
<path d="M105.935 70.9791C104.377 70.2211 102.387 68.2699 100.743 68.3286C108.23 74.4669 110.497 84.3761 111.399 93.5836C111.678 96.4308 111.219 99.0066 112.366 101.544C112.879 101.182 112.897 101.176 113.51 101.096L114.784 101.064C116.087 99.9754 117.97 100.097 119.606 100.469C124.983 99.9983 124.363 99.2439 130.022 100.329C132.814 100.719 136.704 100.878 139.589 100.938C141.7 100.836 143.794 100.852 145.915 100.731C145.274 100.524 145.2 100.524 144.683 100.114L144.769 99.7633C145.709 98.9671 147.949 96.7833 148.847 96.3563C151.655 95.0218 155.929 95.3099 159.076 94.8384C165.387 93.9079 171.656 92.7399 177.948 91.7031C180.297 91.3161 183.086 89.5324 185.441 90.3079L185.631 90.3721L185.976 90.1721L186.157 89.3016C186.954 89.2856 187.553 89.3296 188.305 89.0619L188.495 87.9801C189.305 87.3581 191.664 86.3261 191.918 85.2588C192.072 84.6118 192.032 84.3663 192.355 83.6421C193.028 83.1088 193.209 82.9143 194.078 82.7313C194.346 79.5303 194.762 76.5271 194.788 73.2941C194.582 74.0471 194.495 74.6178 193.93 75.1681C193.324 74.7203 193.163 73.6201 192.556 72.6074L192.451 72.4338L192.375 72.6291C192.747 74.1766 191.988 75.4814 190.572 76.2134C189.758 76.2474 190.056 76.3521 189.454 75.8368L189.211 74.9196L188.704 75.1506L187.141 74.7441C182.999 74.7836 178.477 75.8763 174.346 76.6026L174.636 76.9949C173.777 78.0704 172.355 77.9646 171.152 77.5839L171.049 77.2421C165.56 78.0366 158.28 78.9958 153.035 80.4586C151.318 81.0171 148.138 82.4803 146.483 82.6766C144.385 82.9251 140.874 82.4186 138.633 82.2038C131.399 81.5103 124.561 80.5899 117.445 79.1399C113.356 78.3699 110.3 77.7281 108.16 73.8749C107.642 72.9434 106.775 72.6416 105.935 70.9791ZM122.284 93.2656C123.774 94.3251 124.011 95.6361 124.711 97.2511L123.66 98.0136C121.724 97.5021 116.952 90.2913 121.718 88.4378L121.891 88.4561C125.008 88.7531 127.376 87.9286 130.021 89.5841L129.828 89.8271C127.827 89.9881 125.319 89.7623 123.438 90.3166C121.645 90.8451 121.684 91.7464 122.284 93.2656Z" fill="var(--fill-0, #EFEFEF)"/>
<path d="M121.718 88.4378C116.952 90.2913 121.724 97.5021 123.66 98.0136L124.711 97.2511C124.011 95.6361 123.774 94.3251 122.284 93.2656C121.684 91.7464 121.645 90.8451 123.438 90.3166C125.319 89.7623 127.827 89.9881 129.828 89.8271L130.021 89.5841C127.376 87.9286 125.008 88.7531 121.891 88.4561L121.718 88.4378Z" fill="var(--fill-0, #EFEFEF)"/>
<path d="M52.304 12.2296C50.7752 11.8456 47.4177 10.9131 45.988 10.8676C39.4662 10.6601 29.266 9.4051 23.6253 12.9584C22.791 17.1456 26.909 23.5881 30.4022 25.3953C38.8745 29.7781 52.6625 37.1521 61.704 38.9781C62.0138 38.7373 62.9495 38.5866 63.3827 38.4906L63.8355 38.5403C67.129 37.9921 70.0288 37.3966 73.3803 37.4456C74.055 38.1211 74.8023 38.7799 75.213 39.6334C75.8168 40.8826 76.399 42.1421 76.9593 43.4114C78.2053 43.4249 79.2722 43.3386 80.3995 43.8811C79.9415 44.2863 70.627 44.2586 69.5438 44.1906C67.6205 44.0561 65.7102 43.7738 63.83 43.3466L63.441 44.4206C64.9295 44.1986 68.7168 45.3511 71.1453 45.3471L71.2922 45.6238C70.2595 46.2686 69.5205 46.6238 68.415 47.1461C69.0435 46.9301 70.9038 46.1761 71.385 46.1123C72.8613 45.9168 76.9997 46.4153 78.08 45.0888C77.3575 45.0276 73.1723 45.2966 73.534 45.3986L73.0765 44.7791L73.1905 44.4891C74.4022 44.5426 78.7482 44.6619 79.6847 44.8906C80.1157 45.9709 79.8505 45.7291 80.7212 46.3451L82.596 46.6753C83.0763 46.6153 83.2468 46.6441 83.5875 46.3023C83.336 43.8643 82.5662 43.6256 81.2362 41.6688C80.4717 40.4026 79.4988 37.9371 78.4488 36.1046C75.557 31.0586 68.7238 21.8343 64.0815 18.3516C63.63 18.0866 63.2383 17.7048 62.8185 17.3908C59.6478 15.0201 56.0417 13.4901 52.304 12.2296Z" fill="var(--fill-0, #EFEFEF)"/>
<path d="M97.1553 66.1766C88.745 65.7061 86.4543 73.9846 86.2305 80.7794C86.1058 84.5769 86.1233 91.1441 87.2483 94.8126L87.4508 94.9061C92.8678 97.4636 90.6297 115.488 111.156 108.635C113.344 107.904 115.006 106.847 117.024 105.377C120.661 105.429 135.757 105.968 138.379 104.936C139.154 104.657 140.191 104.501 141.019 104.349C139.891 103.762 136.585 104.174 135.187 103.975C131.064 103.389 127.084 103.09 122.921 103.095C122.374 103.096 121.918 102.866 121.524 102.511L121.695 102.192C122.476 101.76 123.592 101.879 124.515 101.892C122.297 101.666 121.384 101.822 119.606 100.469C117.97 100.097 116.087 99.9754 114.784 101.064L113.51 101.096C113.404 101.1 122.005 103.183 122.441 103.333C125.343 104.329 128.427 102.48 130.688 104.09C132.22 104.25 133.755 104.376 135.293 104.469C129.253 105.262 127.134 105.172 120.922 104.902C116.098 104.996 115.211 105.6 112.366 101.544C111.219 99.0066 111.678 96.4308 111.399 93.5836C110.497 84.3761 108.23 74.4669 100.743 68.3286C99.9282 67.9871 97.5895 66.8563 97.1553 66.1766Z" fill="var(--fill-0, #EFEFEF)"/>
<path d="M121.136 8.03085C101.162 -4.71715 65.7618 0.610099 43.415 4.42135C41.905 4.87785 41.586 4.61885 41.2013 6.23785C39.3425 7.5031 38.1435 5.84635 37.5192 7.0146C38.4267 7.8836 43.9957 7.8081 45.6672 7.89035C52.444 8.3271 58.3445 11.1233 63.9545 14.8928C64.7688 15.4398 68.1547 18.2259 68.516 18.4216C68.846 18.6144 69.0752 18.8676 69.3507 19.1331L69.9132 18.9503L70.057 19.2383L69.6717 19.2788L70.153 19.4516C70.6037 18.5143 69.676 18.9343 70.0322 17.4923C71.9307 16.8711 78.9993 15.8056 81.4118 15.4748C85.2463 14.9488 90.8807 13.7496 94.5845 13.4376C95.469 13.0866 99.087 12.5866 100.353 12.2896L100.257 12.2386C100.71 11.9969 111.427 11.2183 113.244 11.0281C114.437 10.9478 115.629 10.8611 116.821 10.7678C118.202 10.6801 119.725 10.5116 121.115 10.3866C120.681 9.33185 120.896 9.35585 121.136 8.03085ZM75.9087 2.65335L75.8632 2.22635L75.7167 2.2066C75.967 1.1441 75.7393 1.43035 76.4695 0.973099C77.0063 0.964099 77.461 0.960846 77.997 0.985596C77.8683 2.33135 77.8525 3.0826 76.254 3.3276L75.8462 3.1166L75.9087 2.65335Z" fill="var(--fill-0, #EFEFEF)"/>
<path d="M77.997 0.985596C77.461 0.960846 77.0063 0.964099 76.4695 0.973099C75.7393 1.43035 75.967 1.1441 75.7167 2.2066L75.8632 2.22635L75.9087 2.65335L75.8462 3.1166L76.254 3.3276C77.8525 3.0826 77.8683 2.33135 77.997 0.985596Z" fill="var(--fill-0, #EFEFEF)"/>
<path d="M110.71 60.9356C106.303 59.2446 100.084 56.0196 95.7633 54.9553C96.8723 56.8171 103.579 56.6011 103.456 59.6241C102.965 60.8691 101.33 61.4629 101.826 62.2629C102.446 63.2611 102.738 63.6529 103.262 64.8074L104.252 64.9208C104.542 65.4741 104.511 65.6256 104.556 66.2673C104.917 66.4248 108.201 66.6726 108.828 66.5873C109.967 66.4326 110.399 65.1283 111.251 65.2021C111.2 65.6838 111.15 65.7016 110.903 66.1046C111.602 67.5798 116.22 71.4806 117.697 72.9161C119.582 74.7488 122.097 73.3106 122.15 77.4923C123.312 78.9608 124.423 78.8901 125.82 80.1399C127.999 80.7321 131.216 80.6581 133.537 80.6731L132.844 81.0183L132.962 81.3406C133.362 81.5138 135.902 81.4091 136.583 81.4148C139.317 81.4378 145.639 83.1246 147.945 81.9171C148.706 80.9706 148.37 80.9908 148.663 79.9128L147.917 79.3724C148.829 78.8501 151.928 80.1001 153.035 80.4586C158.28 78.9958 165.56 78.0366 171.049 77.2421C172.282 76.8929 173.096 76.7803 174.346 76.6026C178.477 75.8763 182.999 74.7836 187.141 74.7441C187.13 73.7941 187.084 72.8081 187.053 71.8551L186.508 71.2796C186.354 70.2496 186.152 69.2043 185.966 68.1778C185.429 67.9578 185.314 67.5968 184.922 67.0551C184.154 67.3126 184.084 67.3841 183.575 68.0176L183.202 67.7873C177.825 71.6988 159.737 73.6156 152.753 74.0028C153.471 74.0651 154.131 74.1191 154.816 74.3659L154.542 74.2443L154.387 74.6386C152.222 75.1296 149.001 75.3269 147.377 73.6159C146.281 73.5856 145.756 73.7479 144.731 74.2101C144.394 74.3621 143.923 74.8713 143.716 74.6688C142.314 76.1276 139.668 76.7633 137.704 76.8583C127.44 77.3543 111.705 73.5396 110.71 60.9356Z" fill="var(--fill-0, #EFEFEF)"/>
<path d="M7.31325 75.0271C7.34025 74.5353 7.36124 74.0436 7.37674 73.5513C8.39274 73.7943 9.511 75.6158 10.5107 76.2801C11.4707 76.9181 12.751 77.2863 13.8993 77.0421C15.0718 76.7928 15.9665 75.9186 16.577 74.9263C19.4043 70.3293 19.3837 64.1683 18.0972 59.1043C17.1927 55.5443 15.4972 51.2053 12.1542 49.3033C11.3277 48.8328 10.371 48.5788 9.43775 48.8946C8.3385 49.2666 7.40074 50.4013 6.73499 51.2988C1.78149 57.9788 5.7905 66.4028 4.66825 68.4568C5.1585 70.0421 6.30575 73.8111 7.31325 75.0271Z" fill="var(--fill-0, #EFEFEF)"/>
<path d="M28.5538 76.0059C25.2538 73.8654 24.1182 73.1414 23.2172 69.0676C21.4585 61.4581 20.073 48.8344 13.4548 43.6919C4.35825 36.6239 2.14151 49.7716 1.44151 55.2561C1.73251 56.6513 1.97774 57.7856 2.12949 59.2099C2.22399 58.5459 2.20525 58.0834 2.6415 57.6001C3.13825 58.4789 2.92075 59.8774 2.58 60.7844C3.2305 63.3541 3.92675 65.9118 4.66825 68.4568C5.7905 66.4028 1.78149 57.9788 6.73499 51.2988C7.40074 50.4013 8.3385 49.2666 9.43775 48.8946C10.371 48.5788 11.3277 48.8328 12.1542 49.3033C15.4972 51.2053 17.1927 55.5443 18.0972 59.1043C19.3837 64.1683 19.4043 70.3293 16.577 74.9263C15.9665 75.9186 15.0718 76.7928 13.8993 77.0421C12.751 77.2863 11.4707 76.9181 10.5107 76.2801C9.511 75.6158 8.39274 73.7943 7.37674 73.5513C7.36124 74.0436 7.34025 74.5353 7.31325 75.0271C8.64 77.3581 10.1225 79.6658 13.0055 80.3428C16.6695 81.2033 22.4008 80.3076 25.7133 78.4769C26.6598 77.9536 27.773 76.5024 28.5538 76.0059Z" fill="var(--fill-0, #EFEFEF)"/>
<path d="M110.71 60.9356C111.705 73.5396 127.44 77.3543 137.704 76.8583C139.668 76.7633 142.314 76.1276 143.716 74.6688C143.523 74.2163 142.955 73.7859 142.568 73.4394C140.831 72.7284 138.022 70.9088 135.675 69.8916L134.391 69.5149C133.073 68.9361 131.295 68.5416 130.037 67.8368C123.663 64.2663 117.737 62.7309 110.71 60.9356Z" fill="var(--fill-0, #EFEFEF)"/>
<path d="M185.269 93.5396C186.734 93.2516 192.161 90.0376 190.915 87.9926C189.876 87.4271 189.827 87.6603 188.495 87.9801L188.305 89.0619C187.553 89.3296 186.954 89.2856 186.157 89.3016L185.976 90.1721L185.631 90.3721L185.441 90.3079C183.086 89.5324 180.297 91.3161 177.948 91.7031C171.656 92.7399 165.387 93.9079 159.076 94.8384C155.929 95.3099 151.655 95.0218 148.847 96.3563C147.949 96.7833 145.709 98.9671 144.769 99.7633L144.683 100.114C145.2 100.524 145.274 100.524 145.915 100.731C146.656 100.832 151.428 100.297 152.498 100.215C153.196 100.091 154.216 100.003 154.945 99.9163C154.373 99.8686 154.042 99.9094 153.595 99.5919L153.839 99.6341L153.973 98.9833C155.592 98.4293 157.911 98.2121 159.301 99.3656C162.143 98.8293 164.89 98.6321 167.717 97.8939L167.195 97.7568C168.467 95.2818 169.034 96.8794 170.669 96.2824C171.921 95.8251 172.959 95.3186 174.378 95.1316L174.665 95.3981L173.618 96.0821L174.026 96.2418C174.632 96.1173 174.771 96.0539 175.333 95.7811L175.484 95.7069L176.344 96.1184C179.226 95.6039 182.504 94.5369 185.269 93.5396Z" fill="var(--fill-0, #EFEFEF)"/>
<path d="M10.452 17.6938C7.21075 20.6313 4.31025 20.8133 1.57025 22.8188C3.42299 24.2071 14.611 28.5841 17.2252 29.3959C18.1412 28.7624 20.3415 28.2801 20.8135 26.5093C18.3608 24.5343 16.4513 21.7621 13.3393 20.7821C11.2963 20.1386 11.674 18.4726 10.452 17.6938Z" fill="var(--fill-0, #EFEFEF)"/>
<path d="M70.0322 17.4923C69.676 18.9343 70.6037 18.5143 70.153 19.4516L69.6717 19.2788L70.057 19.2383L69.9132 18.9503L69.3507 19.1331C69.0752 18.8676 68.846 18.6144 68.516 18.4216C67.927 19.6906 68.269 19.5253 67.2517 19.9193C65.636 19.5743 65.8965 17.6031 64.0815 18.3516C68.7238 21.8343 75.557 31.0586 78.4488 36.1046C79.4988 37.9371 80.4717 40.4026 81.2362 41.6688C83.928 38.4523 80.8013 36.6769 79.2898 34.0481C79.2835 33.1919 79.1837 33.5288 79.7302 32.7833C80.3735 32.8116 80.655 33.4459 81.3343 34.1054L81.7427 33.9846L82.1397 33.1336C80.3212 29.7031 76.9653 25.4326 74.355 22.5156C73.2005 21.2254 70.8922 18.8443 70.0322 17.4923Z" fill="var(--fill-0, #EFEFEF)"/>
<path d="M43.415 4.42135C38.1953 4.5176 26.2925 8.83635 21.7302 11.4436C22.5527 11.8041 23.553 11.9549 23.6253 12.9584C29.266 9.4051 39.4662 10.6601 45.988 10.8676C47.4177 10.9131 50.7752 11.8456 52.304 12.2296L52.4945 11.9978L52.4115 11.6824L51.4932 11.5106C52.0687 8.9691 47.1235 9.3926 45.545 8.31285L45.6672 7.89035C43.9957 7.8081 38.4267 7.8836 37.5192 7.0146C38.1435 5.84635 39.3425 7.5031 41.2013 6.23785C41.586 4.61885 41.905 4.87785 43.415 4.42135Z" fill="var(--fill-0, #EFEFEF)"/>
<path d="M185.269 93.5396C182.504 94.5369 179.226 95.6039 176.344 96.1184C173.479 96.7606 170.603 97.3526 167.717 97.8939C164.89 98.6321 162.143 98.8293 159.301 99.3656C157.847 99.5326 156.395 99.7163 154.945 99.9163C154.216 100.003 153.196 100.091 152.498 100.215C153.437 100.296 153.861 100.141 154.357 100.686C154.174 101.197 154.041 101.599 153.9 102.122L154.526 101.87C155.544 100.436 156.334 100.463 158.041 100.753C161.818 101.394 165.969 100.146 169.542 100.115L169.527 100.69C172.984 100.414 185.175 97.1821 188.064 95.5828C186.951 95.2008 186.054 96.1408 184.998 95.2631C184.821 94.5516 185.016 94.2141 185.269 93.5396Z" fill="var(--fill-0, #EFEFEF)"/>
<path d="M11.2342 17.1521L10.452 17.6938C11.674 18.4726 11.2963 20.1386 13.3393 20.7821C16.4513 21.7621 18.3608 24.5343 20.8135 26.5093C20.3415 28.2801 18.1412 28.7624 17.2252 29.3959C21.0295 31.2629 28.866 33.9136 33.0357 35.3858C33.5757 35.5766 33.9508 35.2363 34.3068 34.9378L33.543 34.3511L33.505 33.4746L32.999 33.4533C32.4573 31.4233 25.5052 28.2708 23.539 27.0856C22.7767 26.6263 22.0713 24.8949 21.3915 24.7611L21.9435 25.9788L21.6412 26.1641C20.5975 25.6816 18.8303 23.3721 17.7693 22.6333C16.1175 21.4831 14.2675 20.6816 12.7537 19.3288C11.247 17.9823 12.8175 18.2936 11.2342 17.1521Z" fill="var(--fill-0, #EFEFEF)"/>
<path d="M63.8355 38.5403L63.3827 38.4906C63.348 39.1818 63.3085 40.7541 63.1663 41.3513C63.246 42.3636 63.2587 42.5016 63.83 43.3466C65.7102 43.7738 67.6205 44.0561 69.5438 44.1906C70.627 44.2586 79.9415 44.2863 80.3995 43.8811C79.2722 43.3386 78.2053 43.4249 76.9593 43.4114C76.399 42.1421 75.8168 40.8826 75.213 39.6334C72.6405 39.1439 64.5903 39.1686 63.8355 38.5403Z" fill="var(--fill-0, #EFEFEF)"/>
<path d="M82.1397 33.1336L81.7427 33.9846L81.3343 34.1054C80.655 33.4459 80.3735 32.8116 79.7302 32.7833C79.1837 33.5288 79.2835 33.1919 79.2898 34.0481C80.8013 36.6769 83.928 38.4523 81.2362 41.6688C82.5662 43.6256 83.336 43.8643 83.5875 46.3023C83.2468 46.6441 83.0763 46.6153 82.596 46.6753L83.1357 46.8903C83.2972 47.3918 83.3228 47.6208 83.7673 47.9248L84.538 48.0101C84.9388 47.6183 84.9183 47.5104 85.0433 46.9349C85.5163 46.8924 86.2295 47.4173 86.3855 47.4233C87.3558 47.4608 87.6418 46.7598 88.624 46.8531L89.9112 46.5453C89.2435 44.5563 83.5097 35.2171 82.1397 33.1336Z" fill="var(--fill-0, #EFEFEF)"/>
<path d="M68.516 18.4216C68.1547 18.2259 64.7688 15.4398 63.9545 14.8928C58.3445 11.1233 52.444 8.3271 45.6672 7.89035L45.545 8.31285C47.1235 9.3926 52.0687 8.9691 51.4932 11.5106L52.4115 11.6824L52.4945 11.9978L52.304 12.2296C56.0417 13.4901 59.6478 15.0201 62.8185 17.3908C63.2383 17.7048 63.63 18.0866 64.0815 18.3516C65.8965 17.6031 65.636 19.5743 67.2517 19.9193C68.269 19.5253 67.927 19.6906 68.516 18.4216Z" fill="var(--fill-0, #EFEFEF)"/>
<path d="M124.515 101.892C123.592 101.879 122.476 101.76 121.695 102.192L121.524 102.511C121.918 102.866 122.374 103.096 122.921 103.095C127.084 103.09 131.064 103.389 135.187 103.975C136.585 104.174 139.891 103.762 141.019 104.349C140.191 104.501 139.154 104.657 138.379 104.936C141.987 105.57 146.558 103.89 150.265 103.492C151.932 103.313 154.1 103.341 155.579 103.014C153.947 102.966 150.594 103.252 149.234 102.552C147.541 102.507 145.91 102.504 144.234 102.254L128.141 102.065C127.296 102.031 125.262 102.004 124.515 101.892Z" fill="var(--fill-0, #EFEFEF)"/>
<path d="M194.078 82.7313C193.209 82.9143 193.028 83.1088 192.355 83.6421C192.032 84.3663 192.072 84.6118 191.918 85.2588C191.664 86.3261 189.305 87.3581 188.495 87.9801C189.827 87.6603 189.876 87.4271 190.915 87.9926C192.161 90.0376 186.734 93.2516 185.269 93.5396C185.016 94.2141 184.821 94.5516 184.998 95.2631C186.054 96.1408 186.951 95.2008 188.064 95.5828C188.669 95.4521 191.301 93.7059 191.82 93.1971C194.471 90.5999 194.025 86.2438 194.078 82.7313Z" fill="var(--fill-0, #EFEFEF)"/>
<path d="M183.202 67.7873C183.797 66.4123 183.641 66.8713 183.261 65.1368L182.827 64.7154L182.498 64.7503C182.346 66.0186 182.633 67.3511 181.639 68.0288C178.351 70.2456 174.258 69.9586 170.501 70.4199C168.316 70.6881 166.011 72.0426 163.726 72.4391C158.678 73.3146 153.405 72.5193 148.298 73.0001C147.353 73.0891 145.397 71.1048 144.021 71.7061C144.251 72.1313 144.465 72.5656 144.661 73.0076C144.05 73.5971 143.406 73.5044 142.568 73.4394C142.955 73.7859 143.523 74.2163 143.716 74.6688C143.923 74.8713 144.394 74.3621 144.731 74.2101C145.756 73.7479 146.281 73.5856 147.377 73.6159C149.539 73.9469 150.56 74.0113 152.753 74.0028C159.737 73.6156 177.825 71.6988 183.202 67.7873Z" fill="var(--fill-0, #EFEFEF)"/>
<path d="M188.423 56.7066L188.24 56.6751C187.796 56.5951 186.683 56.3296 186.303 56.1211C185.877 55.8868 185.613 54.8291 184.918 54.9421C184.811 55.5746 184.679 56.0196 184.815 56.6438L184.361 56.9766C185.147 59.2854 185.301 64.7581 184.922 67.0551C185.314 67.5968 185.429 67.9578 185.966 68.1778L186.041 68.0321C185.962 67.5681 185.979 67.1643 185.978 66.6961L186.342 66.6086L187.221 67.1656C186.257 64.4951 187.474 63.7781 187.396 61.8373C187.372 61.2468 186.712 59.7776 186.721 58.1831L186.953 58.0306C187.085 58.9796 187.124 58.7358 188.119 59.5151C189.028 59.1493 188.7 59.1361 189.454 59.3786C190.049 60.0388 190.55 60.6574 191.373 61.0441C190.698 59.6549 189.423 57.8876 188.423 56.7066Z" fill="var(--fill-0, #EFEFEF)"/>
<path d="M188.119 59.5151C187.124 58.7358 187.085 58.9796 186.953 58.0306L186.721 58.1831C186.712 59.7776 187.372 61.2468 187.396 61.8373C187.474 63.7781 186.257 64.4951 187.221 67.1656C187.991 67.3318 187.962 66.9756 188.718 67.3331C188.466 68.8076 187.591 67.5713 188.371 68.9538C190.307 68.6166 191.047 67.0071 192.108 65.4836C192.302 64.8834 192.479 64.1164 192.641 63.4934L191.977 62.2106C190.839 62.4598 191.155 62.8544 190.029 62.9511C188.948 62.1496 188.723 60.9341 188.119 59.5151Z" fill="var(--fill-0, #EFEFEF)"/>
<path d="M80.7212 46.3451C80.1382 48.2201 79.3603 47.1083 77.971 48.2053C78.282 49.3833 86.2907 51.9836 87.7907 52.1419C86.9292 51.5246 85.5157 50.7491 84.4432 50.8653L84.1365 50.6091C84.8645 50.5583 85.4702 50.4459 86.1457 50.6889C86.1412 47.5726 88.5403 50.3953 88.624 46.8531C87.6418 46.7598 87.3558 47.4608 86.3855 47.4233C86.2295 47.4173 85.5163 46.8924 85.0433 46.9349C84.9183 47.5104 84.9388 47.6183 84.538 48.0101L83.7673 47.9248C83.3228 47.6208 83.2972 47.3918 83.1357 46.8903L82.596 46.6753L80.7212 46.3451Z" fill="var(--fill-0, #EFEFEF)"/>
<path d="M113.51 101.096C112.897 101.176 112.879 101.182 112.366 101.544C115.211 105.6 116.098 104.996 120.922 104.902C120.497 104.793 119.89 104.708 119.644 104.394C122.448 104.189 126.058 103.79 128.819 103.994C129.616 104.053 129.759 104.316 130.688 104.09C128.427 102.48 125.343 104.329 122.441 103.333C122.005 103.183 113.404 101.1 113.51 101.096Z" fill="var(--fill-0, #EFEFEF)"/>
<path d="M192.108 65.4836C191.047 67.0071 190.307 68.6166 188.371 68.9538L188.001 68.9446C188.183 69.4576 188.574 69.6386 189.105 69.9649L189.092 70.0186C188.605 71.8581 189.166 72.5793 189.742 74.6871C190.51 74.3686 191.7 73.2223 192.375 72.6291L192.451 72.4338L193.126 71.6213L193.014 71.6811C193.041 69.6321 193.141 67.2964 192.108 65.4836Z" fill="var(--fill-0, #EFEFEF)"/>
<path d="M89.9112 46.5453L88.624 46.8531C88.5403 50.3953 86.1412 47.5726 86.1457 50.6889C87.1975 50.8214 87.8365 50.8239 88.8955 50.7636C90.95 50.6469 92.9192 51.2834 94.9717 51.4386L94.6445 51.1099C95.1535 50.6376 95.267 50.7086 95.2985 50.2076C94.6128 49.8716 93.5915 50.3793 92.395 50.3816L92.1445 50.1054L93.3493 49.5171C94.2735 49.7733 95.4782 50.0019 96.438 49.9974L94.5368 49.1863C93.6273 48.8738 91.8197 48.3381 91.266 47.6388L91.909 47.2656C90.532 47.1114 90.807 47.3463 89.9112 46.5453Z" fill="var(--fill-0, #EFEFEF)"/>
<path d="M169.527 100.69L169.542 100.115C165.969 100.146 161.818 101.394 158.041 100.753C156.334 100.463 155.544 100.436 154.526 101.87L153.9 102.122C152.041 102.091 151.022 101.948 149.234 102.552C150.594 103.252 153.947 102.966 155.579 103.014C159.363 102.058 164.798 101.78 169.527 100.69Z" fill="var(--fill-0, #EFEFEF)"/>
<path d="M125.82 80.1399C123.793 80.5149 120.869 78.5259 117.445 79.1399C124.561 80.5899 131.399 81.5103 138.633 82.2038C140.874 82.4186 144.385 82.9251 146.483 82.6766C148.138 82.4803 151.318 81.0171 153.035 80.4586C151.928 80.1001 148.829 78.8501 147.917 79.3724L148.663 79.9128C148.37 80.9908 148.706 80.9706 147.945 81.9171C145.639 83.1246 139.317 81.4378 136.583 81.4148C135.902 81.4091 133.362 81.5138 132.962 81.3406L132.844 81.0183L133.537 80.6731C131.216 80.6581 127.999 80.7321 125.82 80.1399Z" fill="var(--fill-0, #EFEFEF)"/>
<path d="M152.498 100.215C151.428 100.297 146.656 100.832 145.915 100.731C143.794 100.852 141.7 100.836 139.589 100.938L140.881 101.35C140.391 101.496 140.507 101.358 140.273 101.665C141.839 102.318 142.622 101.322 144.234 102.254C145.91 102.504 147.541 102.507 149.234 102.552C151.022 101.948 152.041 102.091 153.9 102.122C154.041 101.599 154.174 101.197 154.357 100.686C153.861 100.141 153.437 100.296 152.498 100.215Z" fill="var(--fill-0, #EFEFEF)"/>
<path d="M192.641 63.4934C192.479 64.1164 192.302 64.8834 192.108 65.4836C193.141 67.2964 193.041 69.6321 193.014 71.6811L193.126 71.6213L192.451 72.4338L192.556 72.6074C193.163 73.6201 193.324 74.7203 193.93 75.1681C194.495 74.6178 194.582 74.0471 194.788 73.2941C195.065 70.1154 194.898 65.9511 192.641 63.4934Z" fill="var(--fill-0, #EFEFEF)"/>
<path d="M139.589 100.938C136.704 100.878 132.814 100.719 130.022 100.329L129.131 100.595L129.186 100.716C128.874 101.479 128.789 101.549 128.141 102.065L144.234 102.254C142.622 101.322 141.839 102.318 140.273 101.665C140.507 101.358 140.391 101.496 140.881 101.35L139.589 100.938Z" fill="var(--fill-0, #EFEFEF)"/>
<path d="M113.244 11.0281C111.427 11.2183 100.71 11.9969 100.257 12.2386L100.353 12.2896C99.087 12.5866 95.469 13.0866 94.5845 13.4376L94.6315 13.7176C97.345 15.2886 99.9733 12.9453 101.781 12.6558C103.003 12.4598 107.076 12.8676 108.747 12.5816C111.006 12.1948 112.352 11.4996 114.636 11.3286C114.177 11.2578 113.699 11.1351 113.244 11.0281Z" fill="var(--fill-0, #EFEFEF)"/>
<path d="M130.022 100.329C124.363 99.2439 124.983 99.9983 119.606 100.469C121.384 101.822 122.297 101.666 124.515 101.892C125.262 102.004 127.296 102.031 128.141 102.065C128.789 101.549 128.874 101.479 129.186 100.716L129.131 100.595L130.022 100.329Z" fill="var(--fill-0, #EFEFEF)"/>
<path d="M150.45 29.6966C149.864 28.4006 149.416 27.6706 147.962 27.2681C146.703 26.9284 145.362 27.1049 144.234 27.7584C146.037 29.8194 147.783 31.9803 149.571 34.0088C149.943 33.3576 149.723 33.5736 150.457 33.2256C148.21 31.6969 147.937 31.1679 146.815 28.9031L147.017 28.7606C148.604 29.2619 148.388 29.6781 149.452 30.1361L150.45 29.6966Z" fill="var(--fill-0, #EFEFEF)"/>
<path d="M73.3803 37.4456C70.0288 37.3966 67.129 37.9921 63.8355 38.5403C64.5903 39.1686 72.6405 39.1439 75.213 39.6334C74.8023 38.7799 74.055 38.1211 73.3803 37.4456Z" fill="var(--fill-0, #EFEFEF)"/>
<path d="M105.935 70.9791C105.481 69.4896 99.5097 64.4338 98.1697 65.0453L99.1412 65.5048L98.9268 65.8984L99.1627 65.5144C98.7065 66.0101 98.5955 66.0473 97.9762 66.3238L97.4445 65.7886L97.1553 66.1766C97.5895 66.8563 99.9282 67.9871 100.743 68.3286C102.387 68.2699 104.377 70.2211 105.935 70.9791Z" fill="var(--fill-0, #EFEFEF)"/>
<path d="M130.688 104.09C129.759 104.316 129.616 104.053 128.819 103.994C126.058 103.79 122.448 104.189 119.644 104.394C119.89 104.708 120.497 104.793 120.922 104.902C127.134 105.172 129.253 105.262 135.293 104.469C133.755 104.376 132.22 104.25 130.688 104.09Z" fill="var(--fill-0, #EFEFEF)"/>
<path d="M183.544 51.4213C183.379 53.0466 183.232 55.6649 184.361 56.9766L184.815 56.6438C184.679 56.0196 184.811 55.5746 184.918 54.9421C185.613 54.8291 185.877 55.8868 186.303 56.1211C186.683 56.3296 187.796 56.5951 188.24 56.6751L188.423 56.7066C187.586 55.3226 184.827 52.3631 183.544 51.4213Z" fill="var(--fill-0, #EFEFEF)"/>
<path d="M176.344 96.1184L175.484 95.7069L175.333 95.7811C174.771 96.0539 174.632 96.1173 174.026 96.2418L173.618 96.0821L174.665 95.3981L174.378 95.1316C172.959 95.3186 171.921 95.8251 170.669 96.2824C169.034 96.8794 168.467 95.2818 167.195 97.7568L167.717 97.8939C170.603 97.3526 173.479 96.7606 176.344 96.1184Z" fill="var(--fill-0, #EFEFEF)"/>
<path d="M61.093 40.8083C59.9375 42.3946 61.34 43.9991 62.77 44.7766C63.287 44.6091 63.1385 44.7584 63.441 44.4206L63.83 43.3466C63.2587 42.5016 63.246 42.3636 63.1663 41.3513C62.738 41.0156 61.6832 40.9118 61.093 40.8083Z" fill="var(--fill-0, #EFEFEF)"/>
<path d="M150.45 29.6966L149.452 30.1361C148.388 29.6781 148.604 29.2619 147.017 28.7606L146.815 28.9031C147.937 31.1679 148.21 31.6969 150.457 33.2256C151.153 31.7219 150.927 31.2829 150.45 29.6966Z" fill="var(--fill-0, #EFEFEF)"/>
<path d="M187.221 67.1656L186.342 66.6086L185.978 66.6961C185.979 67.1643 185.962 67.5681 186.041 68.0321L185.966 68.1778C186.152 69.2043 186.354 70.2496 186.508 71.2796C186.862 70.7413 186.949 70.6663 187.422 70.2191C188.092 70.2386 188.457 70.2371 189.092 70.0186L189.105 69.9649C188.574 69.6386 188.183 69.4576 188.001 68.9446L188.371 68.9538C187.591 67.5713 188.466 68.8076 188.718 67.3331C187.962 66.9756 187.991 67.3318 187.221 67.1656Z" fill="var(--fill-0, #EFEFEF)"/>
<path d="M191.373 61.0441C190.55 60.6574 190.049 60.0388 189.454 59.3786C188.7 59.1361 189.028 59.1493 188.119 59.5151C188.723 60.9341 188.948 62.1496 190.029 62.9511C191.155 62.8544 190.839 62.4598 191.977 62.2106L191.373 61.0441Z" fill="var(--fill-0, #EFEFEF)"/>
<path d="M124.009 42.9658C120.499 43.4973 116.392 44.2186 112.909 44.5873C114.412 45.1886 118.242 45.2691 119.596 44.7741C119.303 44.4576 118.499 44.3314 118.036 44.2154C119.145 44.2864 122.904 43.6296 124.078 43.3424L124.009 42.9658Z" fill="var(--fill-0, #EFEFEF)"/>
<path d="M189.092 70.0186C188.457 70.2371 188.092 70.2386 187.422 70.2191C186.949 70.6663 186.862 70.7413 186.508 71.2796L187.053 71.8551C188.089 72.0078 187.83 71.8146 188.439 72.4889C188.731 73.4561 188.691 74.1453 188.704 75.1506L189.211 74.9196L189.742 74.6871C189.166 72.5793 188.605 71.8581 189.092 70.0186Z" fill="var(--fill-0, #EFEFEF)"/>
<path d="M95.8287 46.8626L91.909 47.2656L91.266 47.6388C91.8197 48.3381 93.6273 48.8738 94.5368 49.1863C94.8638 49.1338 94.885 49.0638 95.15 48.8491L95.0048 48.7174C95.4898 47.9541 95.6555 47.7601 95.8287 46.8626Z" fill="var(--fill-0, #EFEFEF)"/>
<path d="M192.375 72.6291C191.7 73.2223 190.51 74.3686 189.742 74.6871L189.211 74.9196L189.454 75.8368C190.056 76.3521 189.758 76.2474 190.572 76.2134C191.988 75.4814 192.747 74.1766 192.375 72.6291Z" fill="var(--fill-0, #EFEFEF)"/>
<path d="M152.753 74.0028C150.56 74.0113 149.539 73.9469 147.377 73.6159C149.001 75.3269 152.222 75.1296 154.387 74.6386L154.542 74.2443L154.816 74.3659C154.131 74.1191 153.471 74.0651 152.753 74.0028Z" fill="var(--fill-0, #EFEFEF)"/>
<path d="M121.115 10.3866C119.725 10.5116 118.202 10.6801 116.821 10.7678L116.857 10.9851C117.836 11.7506 121.794 11.8381 122.792 11.0341C122.311 10.4988 121.847 10.5148 121.115 10.3866Z" fill="var(--fill-0, #EFEFEF)"/>
<path d="M159.301 99.3656C157.911 98.2121 155.592 98.4293 153.973 98.9833L153.839 99.6341L153.595 99.5919C154.042 99.9094 154.373 99.8686 154.945 99.9163C156.395 99.7163 157.847 99.5326 159.301 99.3656Z" fill="var(--fill-0, #EFEFEF)"/>
<path d="M63.3827 38.4906C62.9495 38.5866 62.0138 38.7373 61.704 38.9781C61.5565 39.6831 61.509 40.2283 61.093 40.8083C61.6832 40.9118 62.738 41.0156 63.1663 41.3513C63.3085 40.7541 63.348 39.1818 63.3827 38.4906Z" fill="var(--fill-0, #EFEFEF)"/>
<path d="M188.704 75.1506C188.691 74.1453 188.731 73.4561 188.439 72.4889C187.83 71.8146 188.089 72.0078 187.053 71.8551C187.084 72.8081 187.13 73.7941 187.141 74.7441L188.704 75.1506Z" fill="var(--fill-0, #EFEFEF)"/>
<path d="M171.049 77.2421L171.152 77.5839C172.355 77.9646 173.777 78.0704 174.636 76.9949L174.346 76.6026C173.096 76.7803 172.282 76.8929 171.049 77.2421Z" fill="var(--fill-0, #EFEFEF)"/>
<path d="M135.675 69.8916C135.922 69.8558 135.833 69.8818 136.062 69.7976C136.584 69.6051 136.603 69.6298 136.851 69.1143C136.311 68.4976 136.593 68.6861 135.646 68.4918C134.572 68.8711 134.896 68.5871 134.391 69.5149L135.675 69.8916Z" fill="var(--fill-0, #EFEFEF)"/>
<path d="M2.58 60.7844C2.92075 59.8774 3.13825 58.4789 2.6415 57.6001C2.20525 58.0834 2.22399 58.5459 2.12949 59.2099L2.58 60.7844Z" fill="var(--fill-0, #EFEFEF)"/>
</g>
</svg>
