<svg preserveAspectRatio="none" width="100%" height="100%" overflow="visible" style="display: block;" viewBox="0 0 196.65 111.455" fill="none" xmlns="http://www.w3.org/2000/svg">
<g id="Vector">
<path d="M126.164 10.2929C100.798 -6.07857 65.6943 0.791186 37.7183 5.75669C25.6428 7.89994 15.6251 16.6377 4.34683 20.9034C3.56808 21.2089 2.34307 21.9672 1.89632 22.6419L1.76083 23.4377C1.50758 24.6649 0.636326 28.5167 0.598076 29.5594C0.184826 32.3569 0.00656907 35.5814 6.90691e-05 38.3717C-0.0106809 43.1004 1.23433 59.9937 3.10183 63.5984C7.04683 75.8432 8.89907 85.8852 24.4636 80.7784C26.9298 79.9692 27.9436 79.0564 29.6513 77.2954C31.2493 77.7319 32.6131 78.1314 34.2843 78.2304C36.5726 78.6617 40.4423 80.1347 42.7881 80.8874L61.2263 86.9162C68.1083 89.1827 75.0621 91.3427 81.8693 93.8042C83.7151 94.4717 86.8298 95.2957 88.4478 96.1284C91.3586 99.5349 93.0998 107.932 98.5376 110.326L99.5821 111.029C103.366 112.09 110.266 111.055 113.775 109.196C115.365 108.353 116.724 107.38 118.361 106.62C131.59 108.162 145.256 106.025 158.327 104.089C162.771 103.431 167.529 102.903 171.878 101.85L177.848 100.545C181.72 99.3479 188.129 97.6212 191.321 95.4059C193.959 93.6429 195.484 92.7772 195.516 89.3632C195.645 86.6224 195.823 83.8844 196.051 81.1504L196.119 78.9159C196.816 77.3979 196.765 69.3334 196.324 67.5822C195.503 65.1717 194.285 62.7264 193.173 60.4267C192.784 59.3862 189.991 56.5354 189.137 55.6067C188.121 54.2537 186.1 52.3984 184.824 51.2942C182.034 48.9577 176.979 47.3249 173.614 45.8589L154.023 37.4059C153.446 36.8894 152.471 35.8007 151.9 35.2032C152.035 34.4977 152.541 33.0274 152.773 32.2852C151.107 26.6754 151.84 28.2584 147.004 26.8632L146.785 26.7992C139.259 22.8577 133.138 15.5624 126.164 10.2929Z" fill="#EBF8FD"/>
<path d="M2.42508 23.8749L1.76083 23.4377C1.50758 24.6649 0.636326 28.5167 0.598076 29.5594C0.184826 32.3569 0.00656907 35.5814 6.90691e-05 38.3717C-0.0106809 43.1004 1.23433 59.9937 3.10183 63.5984C7.04683 75.8432 8.89907 85.8852 24.4636 80.7784C26.9298 79.9692 27.9436 79.0564 29.6513 77.2954C31.2493 77.7319 32.6131 78.1314 34.2843 78.2304C36.5726 78.6617 40.4423 80.1347 42.7881 80.8874L61.2263 86.9162C68.1083 89.1827 75.0621 91.3427 81.8693 93.8042C83.7151 94.4717 86.8298 95.2957 88.4478 96.1284C88.5936 95.1657 87.6846 93.0004 87.5893 91.7722C87.1096 85.5874 86.5821 77.6329 89.3163 71.9199C90.7513 68.9214 93.0766 67.5864 96.0031 66.6314C99.1121 67.1697 100.506 68.0844 102.978 69.8277L103.078 69.4284C100.998 66.3917 95.5226 66.9554 93.4496 65.6789C95.0583 65.0732 97.8878 65.3467 99.6208 65.8902C101.631 66.5209 104.861 70.3989 106.175 70.7369C104.655 68.0989 99.5223 64.5497 96.4296 64.7807C96.0941 64.7402 94.6561 64.5679 94.4708 64.4039C92.0736 62.2789 90.4126 58.3279 88.3941 55.8902C87.2108 54.4614 85.5686 53.2914 84.3313 51.9199C83.3133 51.0004 79.4671 50.9437 78.5008 49.0537C78.6956 48.3454 78.8843 48.4324 79.6686 47.9369C77.8918 46.2827 76.8706 46.0574 74.5126 45.8184L74.6126 46.1652C73.9946 46.5529 72.7426 46.3037 71.5888 46.5912C69.0786 47.2172 64.3211 51.5292 63.0446 53.6134C55.8031 50.5667 45.4396 47.2477 37.8088 44.4127L37.8916 44.1879L37.6108 44.0004C37.2793 43.2627 36.8136 42.5842 36.4078 41.8732C35.5246 40.3244 35.1068 37.6287 33.4676 36.7387L33.5931 36.6342C35.3813 36.9162 36.1753 37.1544 37.8931 37.7032L38.2056 37.4954C37.2888 36.9799 31.9326 35.4604 30.2271 34.8014L2.42508 23.8749Z" fill="#8796AE"/>
<path d="M16.0461 46.1497C13.3141 46.8452 9.69283 42.1174 6.08083 49.1592C5.27658 50.7269 4.69533 52.1999 3.64858 53.5277L3.46259 53.0624C2.53159 57.0449 4.97283 60.9749 3.10183 63.5984C7.04683 75.8432 8.89907 85.8852 24.4636 80.7784C26.9298 79.9692 27.9436 79.0564 29.6513 77.2954C28.9233 76.2749 27.5686 76.3057 26.2973 74.8019C22.8618 70.9187 23.3018 53.3662 16.0461 46.1497Z" fill="#16222F"/>
<path d="M11.6648 49.2309C6.03008 49.6239 5.10383 58.1744 5.44608 62.5194C5.92058 68.5447 7.60684 75.5634 13.8383 77.9162C23.3073 76.1612 21.1853 52.1792 11.6648 49.2309Z" fill="#97A7C0"/>
<path d="M2.42508 23.8749L1.76083 23.4377C1.50758 24.6649 0.636326 28.5167 0.598076 29.5594C1.50383 29.9774 1.63333 29.9894 2.62308 30.0059L2.53658 30.4504C1.90358 30.5297 1.79834 30.5059 1.15784 30.4254C0.667587 31.0552 0.676837 32.6592 0.585587 33.6009L0.729081 33.8242L1.13158 33.4204C3.03858 36.0054 1.00458 40.7249 4.16983 42.2564C8.20808 42.3527 10.7366 37.5494 15.8526 43.4982C17.2081 45.0744 20.3193 50.4027 22.5108 50.6157C26.0008 49.6982 28.5531 44.7769 31.9928 42.8359C31.0001 42.5097 29.7471 42.1429 28.8361 41.6777C31.3651 42.1957 35.3283 43.5569 37.8088 44.4127L37.8916 44.1879L37.6108 44.0004C37.2793 43.2627 36.8136 42.5842 36.4078 41.8732C35.5246 40.3244 35.1068 37.6287 33.4676 36.7387L33.5931 36.6342C35.3813 36.9162 36.1753 37.1544 37.8931 37.7032L38.2056 37.4954C37.2888 36.9799 31.9326 35.4604 30.2271 34.8014L2.42508 23.8749Z" fill="#ADBCD7"/>
<path d="M2.42508 23.8749L1.76083 23.4377C1.50758 24.6649 0.636326 28.5167 0.598076 29.5594C1.50383 29.9774 1.63333 29.9894 2.62308 30.0059C2.24733 27.9792 2.38408 25.9297 2.42508 23.8749Z" fill="#3F4D63"/>
<path d="M22.8933 35.8017L22.3488 35.7324L22.1856 35.9924C22.9443 36.6177 24.8793 37.3297 25.8641 37.7392C26.5231 37.7104 26.3078 37.8087 26.7973 37.4492C26.2278 36.5279 23.9766 36.0609 22.8933 35.8017Z" fill="#BACEED"/>
<path d="M79.6686 47.9369C77.8918 46.2827 76.8706 46.0574 74.5126 45.8184L74.6126 46.1652C73.9946 46.5529 72.7426 46.3037 71.5888 46.5912C69.0786 47.2172 64.3211 51.5292 63.0446 53.6134C66.5501 54.8989 81.1196 60.0637 83.6001 61.8839C83.1506 62.0257 83.0998 61.9957 82.6413 61.9742C82.7901 63.0649 86.9093 67.6549 88.1643 67.8064C92.5098 66.2222 91.3886 65.2824 96.4296 64.7807C96.0941 64.7402 94.6561 64.5679 94.4708 64.4039C92.0736 62.2789 90.4126 58.3279 88.3941 55.8902C87.2108 54.4614 85.5686 53.2914 84.3313 51.9199C83.3133 51.0004 79.4671 50.9437 78.5008 49.0537C78.6956 48.3454 78.8843 48.4324 79.6686 47.9369Z" fill="#97A7C0"/>
<path d="M84.3413 58.4922L84.1286 58.7014C84.1563 60.1617 86.1526 60.9142 87.4503 60.9197C87.5906 60.6707 87.5901 60.5659 87.6638 60.2772C87.1353 59.6587 85.3001 58.9959 84.3413 58.4922Z" fill="var(--fill-0, #DDE6F7)"/>
<path d="M16.0461 46.1497C9.06958 37.8297 3.79084 44.4572 3.46709 52.9084L3.46259 53.0624L3.64858 53.5277C4.69533 52.1999 5.27658 50.7269 6.08083 49.1592C9.69283 42.1174 13.3141 46.8452 16.0461 46.1497Z" fill="#050D15"/>
<path d="M34.2843 78.2304L34.6253 77.4487L34.4301 77.0099C32.7651 76.2359 30.7383 75.8387 28.9796 75.2559C28.2096 75.0009 27.3831 75.0939 26.4896 74.8542L26.2973 74.8019C27.5686 76.3057 28.9233 76.2749 29.6513 77.2954C31.2493 77.7319 32.6131 78.1314 34.2843 78.2304Z" fill="#3F4D63"/>
<path d="M27.6571 62.5079C26.9271 62.5052 26.5931 62.3547 26.1763 62.7414C28.4206 65.0104 72.3068 80.7354 78.5018 82.5307C79.2866 82.7852 79.4293 82.8139 80.2531 82.8467C79.7386 82.0989 76.5536 80.1422 75.6563 79.6199C64.0541 72.8667 51.4371 68.4654 38.6641 64.5259C35.2646 63.4774 31.1936 62.9802 27.6571 62.5079Z" fill="#97A7C0"/>
<path d="M106.175 70.7369C104.861 70.3989 101.631 66.5209 99.6208 65.8902C97.8878 65.3467 95.0583 65.0732 93.4496 65.6789C95.5226 66.9554 100.998 66.3917 103.078 69.4284L102.978 69.8277C100.506 68.0844 99.1121 67.1697 96.0031 66.6314C93.0766 67.5864 90.7513 68.9214 89.3163 71.9199C86.5821 77.6329 87.1096 85.5874 87.5893 91.7722C87.6846 93.0004 88.5936 95.1657 88.4478 96.1284C91.3586 99.5349 93.0998 107.932 98.5376 110.326L99.5821 111.029C103.366 112.09 110.266 111.055 113.775 109.196C115.365 108.353 116.724 107.38 118.361 106.62C131.59 108.162 145.256 106.025 158.327 104.089C162.771 103.431 167.529 102.903 171.878 101.85L177.848 100.545C181.72 99.3479 188.129 97.6212 191.321 95.4059C193.959 93.6429 195.484 92.7772 195.516 89.3632C195.645 86.6224 195.823 83.8844 196.051 81.1504L196.119 78.9159C196.816 77.3979 196.765 69.3334 196.324 67.5822C196.375 70.3554 195.507 71.1024 193.773 73.1247C193.123 73.8829 190.678 75.8209 189.706 75.6774C184.705 74.9392 179.956 76.4782 174.95 77.2522C168.893 78.1887 162.595 79.3352 156.549 80.4242C151.97 81.3577 149.379 83.8662 144.382 83.2724C134.408 82.0869 124.234 81.6292 114.551 78.7369C108.074 76.8727 108.644 72.3264 106.175 70.7369Z" fill="#B2BCCF"/>
<path d="M102.978 69.8277C100.506 68.0844 99.1121 67.1697 96.0031 66.6314C93.0766 67.5864 90.7513 68.9214 89.3163 71.9199C86.5821 77.6329 87.1096 85.5874 87.5893 91.7722C87.6846 93.0004 88.5936 95.1657 88.4478 96.1284C91.3586 99.5349 93.0998 107.932 98.5376 110.326L99.5821 111.029C103.366 112.09 110.266 111.055 113.775 109.196C115.365 108.353 116.724 107.38 118.361 106.62C117.911 106.039 117.434 105.82 116.829 105.421C113.943 103.52 113.611 103.181 112.397 100.164C112.536 98.4482 112.517 96.8472 112.514 95.1284C112.337 93.1599 112.207 91.8404 111.809 89.9127C111.48 83.0882 107.594 74.8239 102.978 69.8277Z" fill="#15202C"/>
<path d="M111.809 89.9127L111.739 90.1187C111.391 91.1752 111.207 93.3737 111.122 94.7552C110.679 101.938 108.413 109.42 100.172 110.582C99.7816 110.637 99.1391 110.304 98.5376 110.326L99.5821 111.029C103.366 112.09 110.266 111.055 113.775 109.196C115.365 108.353 116.724 107.38 118.361 106.62C117.911 106.039 117.434 105.82 116.829 105.421C113.943 103.52 113.611 103.181 112.397 100.164C112.536 98.4482 112.517 96.8472 112.514 95.1284C112.337 93.1599 112.207 91.8404 111.809 89.9127Z" fill="#050D15"/>
<path d="M111.809 89.9127L111.739 90.1187C111.391 91.1752 111.207 93.3737 111.122 94.7552C110.679 101.938 108.413 109.42 100.172 110.582C99.7816 110.637 99.1391 110.304 98.5376 110.326L99.5821 111.029C105.862 110.941 110.572 104.788 111.258 98.9157C111.445 97.3164 111.691 95.8222 111.772 94.2069C112.133 95.4967 112.02 98.1844 112.352 99.9352L112.397 100.164C112.536 98.4482 112.517 96.8472 112.514 95.1284C112.337 93.1599 112.207 91.8404 111.809 89.9127Z" fill="#1B232F"/>
<path d="M98.0961 75.0792L95.6426 75.2542C86.5776 82.3862 89.6888 103.202 100.534 106.815C112.76 105.961 109.459 76.1949 98.0961 75.0792Z" fill="#97A7C0"/>
<path d="M195.516 89.3632C195.303 88.4569 195.425 87.1959 194.928 86.6432C194.364 86.8799 194.023 87.0902 193.502 87.3949C192.279 90.7517 190.7 91.3599 187.655 92.9674C187.243 93.1852 186.861 93.2214 186.558 93.5892C175.661 97.8992 157.599 100.108 145.968 100.802C144.366 101.777 128.621 100.323 126.224 99.6412C125.05 100.177 123.246 100.94 121.962 101.04C121.241 101.097 120.264 100.245 119.707 101.338V101.316C121.106 102.433 121.375 100.94 122.885 102.28C120.631 102.355 116.216 101.608 114.072 100.843C113.082 100.49 113.091 96.6737 112.514 95.1284C112.517 96.8472 112.536 98.4482 112.397 100.164C113.611 103.181 113.943 103.52 116.829 105.421C117.434 105.82 117.911 106.039 118.361 106.62C131.59 108.162 145.256 106.025 158.327 104.089C162.771 103.431 167.529 102.903 171.878 101.85L177.848 100.545C181.72 99.3479 188.129 97.6212 191.321 95.4059C193.959 93.6429 195.484 92.7772 195.516 89.3632Z" fill="var(--fill-0, #DDE6F7)"/>
<path d="M122.885 102.28C120.631 102.355 116.216 101.608 114.072 100.843C113.082 100.49 113.091 96.6737 112.514 95.1284C112.517 96.8472 112.536 98.4482 112.397 100.164C113.611 103.181 113.943 103.52 116.829 105.421C117.434 105.82 117.911 106.039 118.361 106.62C131.59 108.162 145.256 106.025 158.327 104.089C162.771 103.431 167.529 102.903 171.878 101.85C171.036 101.133 170.584 101.079 169.502 100.798C157.534 102.833 147.174 103.615 134.97 102.896C131.144 102.671 126.649 102.9 122.885 102.28Z" fill="#697489"/>
<path d="M191.321 95.4059L190.887 94.8447C190.303 94.8869 186.093 96.8144 184.896 97.2374C181.766 98.3634 178.536 99.1864 175.249 99.6949C176.205 100.452 176.608 100.426 177.848 100.545C181.72 99.3479 188.129 97.6212 191.321 95.4059Z" fill="#3F4D63"/>
<path d="M175.249 99.6949C173.276 100.005 171.456 100.384 169.502 100.798C170.584 101.079 171.036 101.133 171.878 101.85L177.848 100.545C176.608 100.426 176.205 100.452 175.249 99.6949Z" fill="#5F6E84"/>
<path d="M183.932 90.8747C175.133 93.8212 162.588 95.1074 153.336 96.2164C150.748 96.6569 147.795 98.6077 145.781 100.258L145.725 100.647L145.968 100.802C157.599 100.108 175.661 97.8992 186.558 93.5892C186.028 92.7432 184.786 91.4117 183.932 90.8747Z" fill="#1B232F"/>
<path d="M193.148 86.0482C192.126 86.0729 192.058 86.6792 191.198 87.0189C190.738 87.2004 190.007 86.6527 189.91 86.6812C182.344 88.9014 174.768 90.3299 167.02 91.6954C165.645 91.9377 164.874 92.3002 163.445 91.8244C162.71 91.6417 162.717 91.5032 162.272 91.8164C162.512 91.9859 162.736 92.1432 162.969 92.3227C160.394 93.1602 155.068 93.2184 152.18 93.8892C150.479 94.2842 149.737 95.5614 148.03 95.7422C145.975 95.9597 141.469 95.1049 139.725 95.9409C144.398 96.1632 148.821 96.0462 153.336 96.2164C162.588 95.1074 175.133 93.8212 183.932 90.8747C184.786 91.4117 186.028 92.7432 186.558 93.5892C186.861 93.2214 187.243 93.1852 187.655 92.9674C190.7 91.3599 192.279 90.7517 193.502 87.3949C193.488 86.8534 193.337 86.5637 193.148 86.0482Z" fill="var(--fill-0, #DDE6F7)"/>
<path d="M193.148 86.0482C190.968 88.3334 186.864 89.7334 183.932 90.8747C184.786 91.4117 186.028 92.7432 186.558 93.5892C186.861 93.2214 187.243 93.1852 187.655 92.9674C190.7 91.3599 192.279 90.7517 193.502 87.3949C193.488 86.8534 193.337 86.5637 193.148 86.0482Z" fill="#97A7C0"/>
<path d="M125.045 91.1869L121.736 90.9939C123.067 95.5662 123.339 96.1619 126.765 99.3172L126.2 99.3709L126.224 99.6412C128.621 100.323 144.366 101.777 145.968 100.802L145.725 100.647L145.781 100.258C147.795 98.6077 150.748 96.6569 153.336 96.2164C148.821 96.0462 144.398 96.1632 139.725 95.9409C138.035 96.1699 127.727 95.2457 125.558 94.6682C124.461 94.3759 123.905 92.6427 123.439 91.5747L123.609 91.3074L125.045 91.1869Z" fill="#8993A7"/>
<path d="M125.045 91.1869C127.052 91.2229 136.088 91.8462 136.996 90.9842C136.163 90.2489 122.837 89.7799 120.952 89.6979C121.216 93.3072 122.725 97.6689 126.2 99.3709L126.765 99.3172C123.339 96.1619 123.067 95.5662 121.736 90.9939L125.045 91.1869Z" fill="#1B232F"/>
<path d="M196.119 78.9159C195.247 79.4692 193.875 80.2357 193.626 81.2734C194.265 81.6592 195.349 81.3834 196.051 81.1504L196.119 78.9159Z" fill="#737D92"/>
<path d="M146.785 26.7992C139.259 22.8577 133.138 15.5624 126.164 10.2929C123.481 11.2359 115.311 11.5724 111.809 11.9832C102.553 13.0954 93.3198 14.3877 84.1141 15.8587C80.3948 16.4557 74.7691 17.2049 71.2388 18.1572C73.1593 20.3474 76.4481 23.6874 78.0073 25.9767C82.2246 32.1687 88.5558 40.9827 91.4441 47.7712C100.526 46.7464 109.646 45.5969 118.68 44.3152C129.867 42.7279 141.043 41.3899 152.024 38.6819C152.718 38.5109 153.535 37.9002 154.023 37.4059C153.446 36.8894 152.471 35.8007 151.9 35.2032C152.035 34.4977 152.541 33.0274 152.773 32.2852C151.107 26.6754 151.84 28.2584 147.004 26.8632L146.785 26.7992Z" fill="#3F4D63"/>
<path d="M146.785 26.7992C145.92 26.8694 145.29 26.9007 144.423 26.8957C144.638 28.3074 150.353 34.4977 151.9 35.2032C152.035 34.4977 152.541 33.0274 152.773 32.2852C151.107 26.6754 151.84 28.2584 147.004 26.8632L146.785 26.7992Z" fill="var(--fill-0, #DDE6F7)"/>
<path d="M63.0481 14.9024C61.8441 14.7322 58.9043 13.6224 57.8231 13.1462C49.7458 9.58868 42.2151 8.97543 33.4996 9.70343C32.6371 9.77543 30.1851 9.96343 29.3541 9.85543C27.1198 10.4692 22.6381 12.4514 21.5083 14.3914C23.4301 24.9594 32.4673 28.0904 41.4471 31.7232C43.6906 32.6307 45.9098 33.7312 48.1853 34.6109C47.9401 36.3884 47.9658 36.3689 48.5443 38.0867C49.2413 38.5012 49.9851 38.6962 50.2201 39.2254C49.9536 39.6749 49.7608 39.9724 49.4513 40.3934C50.0036 41.8387 51.6411 42.0322 52.9006 42.7669C52.6876 43.4629 51.7996 43.7042 51.1248 43.8497C50.7581 44.4654 50.8758 44.5069 50.3521 44.7202L50.2638 44.9894C48.6291 46.6372 48.7706 45.2627 47.2288 44.9072C46.0776 44.6414 45.9516 46.5302 44.3338 46.3837C42.7008 46.2359 39.2993 43.9987 37.8916 44.1879L37.8088 44.4127C45.4396 47.2477 55.8031 50.5667 63.0446 53.6134C64.3211 51.5292 69.0786 47.2172 71.5888 46.5912C72.7426 46.3037 73.9946 46.5529 74.6126 46.1652L74.5126 45.8184C76.8706 46.0574 77.8918 46.2827 79.6686 47.9369C78.8843 48.4324 78.6956 48.3454 78.5008 49.0537C79.4671 50.9437 83.3133 51.0004 84.3313 51.9199C85.0386 52.0244 89.0403 53.3677 89.9821 53.6574C89.1323 53.1314 85.4481 51.7954 84.2571 51.3247C83.1966 51.0187 81.1173 50.5754 80.5413 49.7269C81.2446 48.8772 82.9128 48.8539 84.0791 48.7144L83.9733 48.4364L84.2491 48.2264L84.8708 48.6187C86.4023 48.5587 87.9601 48.8652 89.2593 48.1754L89.7878 47.8964C87.1171 45.1129 86.6591 43.4832 84.6521 40.6004C78.4646 31.7124 72.2868 20.9422 63.0481 14.9024Z" fill="#BACEED"/>
<path d="M82.2476 44.0219C82.5711 43.8369 82.5413 43.8159 82.7093 43.4739C82.2596 41.9052 79.3788 36.6587 78.4681 35.2522C71.0991 23.8347 64.1163 15.6107 50.2246 12.2544C46.7978 11.4267 28.5616 9.94319 24.6138 14.1427C23.7233 15.0899 26.9016 21.5637 27.7308 22.6577C28.5621 23.7547 31.2728 26.1009 32.7518 26.7644C38.1451 29.7337 57.0028 38.5237 62.7186 39.4759L62.8441 39.4959L63.9938 38.8859C66.1246 38.5482 68.4673 38.2254 70.5698 37.8739C75.8238 36.9959 76.1806 40.0964 78.0426 43.7597C79.0476 43.8029 81.3568 43.8534 82.2476 44.0219Z" fill="#3F4D63"/>
<path d="M78.0426 43.7597C76.1806 40.0964 75.8238 36.9959 70.5698 37.8739C68.4673 38.2254 66.1246 38.5482 63.9938 38.8859C64.3781 40.1787 64.4901 42.5799 64.3053 43.9184C67.0918 44.6079 71.6313 44.7942 74.6133 44.9692C76.4951 44.9517 80.7131 45.0774 82.3543 44.4872L82.2476 44.0219C81.3568 43.8534 79.0476 43.8029 78.0426 43.7597Z" fill="var(--fill-0, #DDE6F7)"/>
<path d="M79.6686 47.9369C81.5291 46.6699 82.7183 47.1454 83.9276 46.2149C83.6401 45.0442 83.5681 44.4317 82.3543 44.4872C80.7131 45.0774 76.4951 44.9517 74.6133 44.9692L74.5126 45.8184C76.8706 46.0574 77.8918 46.2827 79.6686 47.9369Z" fill="#5F6E84"/>
<path d="M63.9938 38.8859L62.8441 39.4959L62.7846 39.6522C62.5321 40.3012 62.4548 40.4402 62.0563 41.0044C61.9431 41.8744 62.0693 43.5449 62.8203 44.0774C63.3901 43.7709 63.6433 43.8584 64.3053 43.9184C64.4901 42.5799 64.3781 40.1787 63.9938 38.8859Z" fill="#97A7C0"/>
<path d="M64.3053 43.9184C63.6433 43.8584 63.3901 43.7709 62.8203 44.0774C65.1821 45.1952 71.5243 45.5134 74.5126 45.8184L74.6133 44.9692C71.6313 44.7942 67.0918 44.6079 64.3053 43.9184Z" fill="#737D92"/>
<path d="M50.2638 44.9894C51.0031 45.6954 53.4638 46.7097 54.5143 46.4774L54.6588 46.2142C53.9073 45.4112 51.4191 44.8759 50.3521 44.7202L50.2638 44.9894Z" fill="var(--fill-0, #DDE6F7)"/>
<path d="M189.137 55.6067C189.162 59.4399 189.818 62.5124 186.246 64.8829C186.256 67.0819 186.589 70.2392 189.993 69.1437C191.949 68.5142 192.691 66.3922 193.391 64.6147C193.053 63.1814 192.966 61.8792 193.173 60.4267C192.784 59.3862 189.991 56.5354 189.137 55.6067Z" fill="#3F4D63"/>
<path d="M184.824 51.2942C183.677 53.6039 185.874 58.2704 186.169 60.8034C186.333 62.2129 186.26 63.4752 186.246 64.8829C189.818 62.5124 189.162 59.4399 189.137 55.6067C188.121 54.2537 186.1 52.3984 184.824 51.2942Z" fill="#5F6E84"/>
<path d="M63.0481 14.9024C59.9066 12.6582 56.0091 10.7177 52.2828 9.79144C47.4141 8.58144 33.5958 7.34893 29.3541 9.85543C30.1851 9.96343 32.6371 9.77543 33.4996 9.70343C42.2151 8.97543 49.7458 9.58868 57.8231 13.1462C58.9043 13.6224 61.8441 14.7322 63.0481 14.9024Z" fill="var(--fill-0, #DDE6F7)"/>
<path d="M84.0791 48.7144C82.9128 48.8539 81.2446 48.8772 80.5413 49.7269C81.1173 50.5754 83.1966 51.0187 84.2571 51.3247L84.6443 50.7257C85.5021 50.2049 86.7113 50.4879 88.0253 50.3054C86.9328 50.1319 84.2288 49.9157 83.6098 49.4369L84.0301 49.1584L84.0791 48.7144Z" fill="var(--fill-0, #DDE6F7)"/>
<path d="M112.892 62.0732C112.481 61.9224 112.704 61.9619 112.188 62.0872C111.946 62.8904 112.453 65.4069 112.588 66.4549C114.701 69.1944 117.261 71.5587 120.159 73.4482C125.748 77.0124 135.886 78.0247 142.37 76.5989C143.24 76.2192 144.253 75.6457 145.108 75.1907C142.932 73.7647 139.758 71.7262 137.333 70.9002C129.344 68.1787 121.394 62.9964 112.892 62.0732Z" fill="#3F4D63"/>
<path d="M183.999 65.3409C183.322 66.0212 183.501 66.6702 183.432 67.8239C182.141 70.7637 164.111 73.0139 160.531 73.5784C157.523 74.0527 151.105 74.1342 148.06 73.5539L147.695 73.8474C155.056 75.6392 167.975 72.9812 175.565 71.5142C177.501 71.1399 183.135 69.9244 184.1 68.1319C184.583 67.2347 184.259 66.2619 183.999 65.3409Z" fill="var(--fill-0, #DDE6F7)"/>
<path d="M166.203 67.0022C165.43 66.9584 164.442 66.7784 163.975 67.4557C164.354 68.1652 165.288 68.5997 166.017 69.0349C166.624 69.4852 166.381 69.4244 167.074 69.5164C167.203 68.8092 166.545 67.7144 166.203 67.0022Z" fill="var(--fill-0, #DDE6F7)"/>
</g>
</svg>
