<svg preserveAspectRatio="none" width="100%" height="100%" overflow="visible" style="display: block;" viewBox="0 0 83 85.0899" fill="none" xmlns="http://www.w3.org/2000/svg">
<g id="Vector">
<path d="M41.512 52.2191C46.723 52.2191 50.9465 47.8893 50.9465 42.5471C50.9465 37.2049 46.723 32.8751 41.512 32.8751C36.3011 32.8751 32.0775 37.2049 32.0775 42.5471C32.0775 47.8893 36.3011 52.2191 41.512 52.2191Z" fill="var(--fill-0, #E5EBED)"/>
<path d="M41.5091 28.9025L50.9078 19.2672V1.09917C47.8835 0.380867 44.7322 0 41.4961 0C38.26 0 35.1282 0.377526 32.1105 1.09249V19.2672L41.5091 28.9025Z" fill="var(--fill-0, #E5EBED)"/>
<path d="M41.5091 56.4113L32.1105 65.8261H32.1137V84.0008C35.1249 84.7124 38.26 85.0899 41.4831 85.0899H41.4994C44.7354 85.0899 47.8868 84.7091 50.9078 83.9908V65.8261L41.5091 56.4113Z" fill="var(--fill-0, #E5EBED)"/>
<path d="M81.9278 32.9203H64.2222L54.7323 42.5555L64.2222 52.1908H81.9311C82.6285 49.0971 83 45.8731 83 42.5622C83 39.2513 82.6285 36.0207 81.9311 32.9236L81.9278 32.9203Z" fill="var(--fill-0, #E5EBED)"/>
<path d="M27.9972 42.5555L18.7941 32.9203L1.04936 32.9236C0.436692 35.6365 0.0782135 38.4462 0 41.3294V43.7817C0.0782135 46.6649 0.436692 49.478 1.04936 52.1908H18.7908L27.9939 42.5555H27.9972Z" fill="var(--fill-0, #E5EBED)"/>
<path d="M64.2469 32.8373L76.722 20.0482C73.3621 14.5357 68.8094 9.86836 63.4289 6.43054L50.9506 19.223C56.947 21.7788 61.7473 26.6933 64.2469 32.8373Z" fill="var(--fill-0, #E5EBED)"/>
<path d="M18.7322 52.2401L6.25388 65.0326C7.84748 67.6552 9.71157 70.0841 11.807 72.2824L12.4914 72.984C14.6292 75.1256 16.9887 77.0299 19.5371 78.6603L32.0089 65.8712C26.0158 63.3053 21.222 58.3875 18.7289 52.2368L18.7322 52.2401Z" fill="var(--fill-0, #E5EBED)"/>
<path d="M64.2542 52.2503C61.7611 58.3976 56.9673 63.3188 50.9709 65.8813L63.4459 78.6704C65.7728 77.1804 67.9465 75.4598 69.9344 73.5421L71.717 71.7146C73.5941 69.67 75.2757 67.4349 76.7292 65.0428L64.2509 52.2503H64.2542Z" fill="var(--fill-0, #E5EBED)"/>
<path d="M32.0354 19.223L19.557 6.43054C14.1766 9.8717 9.62393 14.5357 6.26401 20.0482L18.7391 32.8373C21.2386 26.6933 26.039 21.7788 32.0354 19.223Z" fill="var(--fill-0, #E5EBED)"/>
</g>
</svg>
