<svg preserveAspectRatio="none" width="100%" height="100%" overflow="visible" style="display: block;" viewBox="0 0 59.943 59.943" fill="none" xmlns="http://www.w3.org/2000/svg">
<g id="logomark_ava" opacity="0.41" clip-path="url(#clip0_0_4)">
<path id="Vector" d="M37.5388 56.3951H57.6022C59.3725 56.3951 60.4804 54.4779 59.594 52.9455L49.5623 35.5714C48.676 34.039 46.4649 34.039 45.5786 35.5714L35.5469 52.9455C34.6606 54.4779 35.7685 56.3951 37.5388 56.3951Z" fill="var(--fill-0, white)"/>
<path id="Vector_2" d="M40.0484 19.0927L31.8034 4.80899C30.9707 3.36522 28.8855 3.36522 28.0528 4.80899L0.322708 52.838C-0.589265 54.4194 0.551284 56.3926 2.37523 56.3926H18.8864C20.6473 56.3926 22.273 55.4526 23.1524 53.9296L40.0484 24.6648C41.0444 22.9412 41.0444 20.8163 40.0484 19.0927Z" fill="var(--fill-0, white)"/>
</g>
<defs>
<clipPath id="clip0_0_4">
<rect width="59.943" height="59.943" fill="white"/>
</clipPath>
</defs>
</svg>
