<svg preserveAspectRatio="none" width="100%" height="100%" overflow="visible" style="display: block;" viewBox="0 0 63.375 13" fill="none" xmlns="http://www.w3.org/2000/svg">
<g id="Doma Logo">
<g id="Logo">
<path d="M6.48625 8.618L7.95467 10.0568V12.8318C7.4828 12.9415 6.99064 13 6.48519 13H6.48201C5.97843 13 5.48831 12.9426 5.01782 12.8339V10.0568L6.48625 8.618Z" fill="var(--fill-0, black)"/>
<path fill-rule="evenodd" clip-rule="evenodd" d="M32.811 0.816732C35.944 0.816864 38.4837 3.36273 38.4837 6.50317C38.4836 9.64353 35.944 12.1895 32.811 12.1896C29.678 12.1896 27.1374 9.64361 27.1373 6.50317C27.1373 3.36265 29.6779 0.816732 32.811 0.816732ZM32.811 2.86491C30.8768 2.86491 29.3082 4.49417 29.3082 6.50317C29.3083 8.51208 30.8769 10.1414 32.811 10.1414C34.7451 10.1413 36.3127 8.51254 36.3128 6.50317C36.3128 4.49372 34.7452 2.86505 32.811 2.86491Z" fill="var(--fill-0, black)"/>
<path d="M10.0399 7.98324L11.9897 9.93726C11.7626 10.3027 11.499 10.6437 11.2057 10.9561L10.9275 11.2354C10.6169 11.5283 10.2775 11.7917 9.91398 12.0193L7.96419 10.0653C8.84255 9.69826 9.55592 9.01457 9.96265 8.15674L10.0399 7.98324Z" fill="var(--fill-0, black)"/>
<path d="M2.92627 7.98112C3.31585 8.92072 4.06557 9.67223 5.00195 10.0642L3.05322 12.0182C2.65506 11.7692 2.28592 11.4779 1.9519 11.1507L1.84505 11.0428C1.51784 10.7071 1.22643 10.3366 0.977539 9.9362L2.92627 7.98112Z" fill="var(--fill-0, black)"/>
<path d="M45.3529 9.27922L48.5299 1.00822H50.9114V11.9653H48.8801V5.32992L46.2987 11.9664H44.4071L41.8247 5.32674V11.9653H39.7924V1.00822H42.1759L45.3529 9.27922Z" fill="var(--fill-0, black)"/>
<path fill-rule="evenodd" clip-rule="evenodd" d="M58.8036 1.00822L63.375 11.9664H61.1269L60.38 10.133H54.9675L54.2206 11.9664H51.9725L56.5439 1.00822H58.8036ZM55.7197 8.28475H59.6278L57.6737 3.48804L55.7197 8.28475Z" fill="var(--fill-0, black)"/>
<path fill-rule="evenodd" clip-rule="evenodd" d="M20.2437 1.00822C21.416 1.00822 22.539 1.2313 23.3731 1.67684C24.212 2.1223 24.9259 2.75766 25.3557 3.58325C25.7904 4.40905 26.0085 5.38256 26.0085 6.50212C26.0084 7.62137 25.7908 8.58331 25.3557 9.40405C24.9265 10.2248 24.2924 10.858 23.4535 11.3041C22.6194 11.7448 21.4165 11.9653 20.2437 11.9653H15.4883V1.00822H20.2437ZM17.5206 10.1256H20.2935C21.0207 10.1256 21.7478 9.98219 22.2612 9.69604C22.7788 9.40503 23.2466 8.98678 23.5234 8.44133C23.8001 7.89515 23.9381 7.24852 23.9381 6.50106C23.9381 5.75365 23.8001 5.0937 23.5234 4.5481C23.2466 4.00258 22.7794 3.58586 22.2612 3.29972C21.8083 3.04509 21.1937 2.902 20.5601 2.8702L20.2871 2.86385H17.5206V10.1256Z" fill="var(--fill-0, black)"/>
<path d="M6.48625 5.02311C7.30038 5.02311 7.96084 5.68398 7.96102 6.5C7.96102 7.31618 7.30049 7.97795 6.48625 7.97795C5.67208 7.97785 5.01253 7.31611 5.01253 6.5C5.01271 5.68404 5.6722 5.02321 6.48625 5.02311Z" fill="var(--fill-0, black)"/>
<path d="M2.93685 5.02946L4.37459 6.50106L2.93579 7.97371H0.163981C0.0682825 7.5594 0.0122491 7.1297 0 6.68937V6.3138C0.0122407 5.87363 0.0683484 5.4447 0.163981 5.03052L2.93685 5.02946Z" fill="var(--fill-0, black)"/>
<path d="M12.8022 5.03052C12.911 5.5034 12.9693 5.99661 12.9693 6.50212C12.9693 7.00795 12.9111 7.50106 12.8022 7.97371H10.0356L8.55241 6.50106L10.0356 5.02946L12.8022 5.03052Z" fill="var(--fill-0, black)"/>
<path d="M3.05534 0.982829L5.00513 2.93685C4.06842 3.32734 3.31893 4.07833 2.92839 5.01676L0.978597 3.06274C1.5035 2.22076 2.21487 1.50851 3.05534 0.982829Z" fill="var(--fill-0, black)"/>
<path d="M9.91081 0.982829C10.7515 1.50805 11.4636 2.22055 11.9886 3.06274L10.0388 5.01676C9.64822 4.07817 8.89793 3.3273 7.96102 2.93685L9.91081 0.982829Z" fill="var(--fill-0, black)"/>
<path d="M6.48413 0C6.98977 0 7.48213 0.0584781 7.95467 0.168213V2.9432L6.48625 4.41585L5.01782 2.9432V0.167155C5.4893 0.0579495 5.97854 1.68065e-06 6.48413 0Z" fill="var(--fill-0, black)"/>
</g>
</g>
</svg>
