<svg preserveAspectRatio="none" width="100%" height="100%" overflow="visible" style="display: block;" viewBox="0 0 21 21" fill="none" xmlns="http://www.w3.org/2000/svg">
<path id="Icon" fill-rule="evenodd" clip-rule="evenodd" d="M10.5 0C4.70101 0 0 4.70101 0 10.5C0 16.299 4.70101 21 10.5 21C16.299 21 21 16.299 21 10.5C21 4.70101 16.299 0 10.5 0ZM13.1732 13.882L13.7335 13.3217C14.1977 12.8574 14.1977 12.1048 13.7335 11.6406L11.9364 9.84351V6.63679C11.9364 5.9803 11.4042 5.44811 10.7477 5.44811H9.95529C9.2988 5.44811 8.76661 5.9803 8.76661 6.63679V10.5C8.76661 10.9203 8.93359 11.3235 9.23081 11.6207L11.4921 13.882C11.9563 14.3462 12.709 14.3462 13.1732 13.882Z" fill="var(--fill-0, white)"/>
</svg>
