<svg preserveAspectRatio="none" width="100%" height="100%" overflow="visible" style="display: block;" viewBox="0 0 58.5677 58.5677" fill="none" xmlns="http://www.w3.org/2000/svg">
<g id="Thumbnail">
<g clip-path="url(#clip0_0_9)">
<path id="Background" opacity="0.12" d="M58.5708 29.2848C58.5708 13.1118 45.4599 0.000971704 29.2869 0.000971704C13.1139 0.000971704 0.00306147 13.1118 0.00306147 29.2848C0.00306147 45.4579 13.1139 58.5687 29.2869 58.5687C45.4599 58.5687 58.5708 45.4579 58.5708 29.2848Z" fill="var(--fill-0, black)"/>
<g id="Thumbnail_2">
<g clip-path="url(#clip1_0_9)">
<path id="Union" d="M18.7227 33.66C19.2793 35.0063 20.104 36.2688 21.1983 37.3631H21.2002C22.2698 38.4327 23.4996 39.242 24.8115 39.7986L24.8145 39.7967C24.8795 39.8236 24.9448 39.8517 25.0098 39.8787V48.8094C22.7314 48.3131 20.5229 47.4159 18.4981 46.116L18.4961 46.1189C17.3083 45.3561 16.2236 44.4978 15.1436 43.4178C14.0636 42.3378 13.1328 41.1657 12.3526 39.9256L18.6182 33.66H18.7227ZM39.9112 46.2059C37.9811 47.4223 35.889 48.2757 33.7305 48.7674V40.0252L39.9112 46.2059ZM48.7715 33.66C48.2719 35.8993 47.3818 38.0688 46.1035 40.0623L46.1006 40.0594C45.3383 41.2475 44.4778 42.3345 43.4004 43.4119C42.322 44.4904 41.1498 45.4197 39.9112 46.2L33.7305 40.0193V39.7928C35.0436 39.2377 36.2733 38.4277 37.3438 37.3572H37.3457C38.4177 36.2852 39.2275 35.0527 39.7842 33.7381L39.7862 33.74C39.7983 33.7129 39.8107 33.6872 39.8213 33.66H48.7715ZM12.3516 39.9256C11.1194 37.9702 10.26 35.8484 9.77151 33.66H18.6182L12.3516 39.9256ZM26.1533 26.1932C27.836 24.5093 30.5648 24.5093 32.249 26.1932C33.9333 27.8774 33.9333 30.6075 32.249 32.2918C30.5664 33.9756 27.8375 33.9756 26.1533 32.2918V32.2898C24.4691 30.6071 24.4706 27.8774 26.1533 26.1932ZM25.0049 18.6951C24.9421 18.7202 24.8792 18.7485 24.8164 18.7752C23.5019 19.3318 22.2702 20.1428 21.1983 21.2146C20.0992 22.3137 19.2706 23.5815 18.7139 24.9344H18.6416L18.6406 24.9334H9.76858C10.257 22.7372 11.1193 20.6088 12.3545 18.6473C13.1348 17.4086 14.1022 16.1984 15.1426 15.158C16.183 14.1176 17.3096 13.2187 18.499 12.4559C20.5219 11.158 22.7286 10.261 25.0049 9.7664V18.6951ZM46.1016 18.5096C47.3846 20.5079 48.2758 22.6861 48.7754 24.9334H39.8291C39.8149 24.8986 39.7965 24.8637 39.7823 24.8289L46.1016 18.5096ZM33.7305 9.80839C35.8865 10.2998 37.9765 11.151 39.9043 12.365L39.9063 12.3641C41.1448 13.1459 42.3185 14.0751 43.3985 15.1551C44.4372 16.1938 45.3368 17.3198 46.0996 18.5076L39.7813 24.826C39.2246 23.5129 38.4142 22.2806 37.3438 21.2117C36.2733 20.1428 35.0437 19.3328 33.7305 18.7762V9.80839Z" fill="var(--fill-0, black)"/>
</g>
</g>
</g>
<path d="M29.2842 0.610352C45.1201 0.610526 57.958 13.4482 57.958 29.2842C57.9578 45.12 45.12 57.9578 29.2842 57.958C13.4482 57.958 0.610526 45.1201 0.610352 29.2842C0.610352 13.4481 13.4481 0.610352 29.2842 0.610352Z" stroke="var(--stroke-0, black)" stroke-opacity="0.02" stroke-width="1.22016"/>
</g>
<defs>
<clipPath id="clip0_0_9">
<path d="M0 29.2839C0 13.1108 13.1108 0 29.2839 0V0C45.4569 0 58.5677 13.1108 58.5677 29.2839V29.2839C58.5677 45.4569 45.4569 58.5677 29.2839 58.5677V58.5677C13.1108 58.5677 0 45.4569 0 29.2839V29.2839Z" fill="white"/>
</clipPath>
<clipPath id="clip1_0_9">
<rect x="9.76425" y="9.76455" width="39.0451" height="39.0456" rx="19.5226" fill="white"/>
</clipPath>
</defs>
</svg>
