<svg preserveAspectRatio="none" width="100%" height="100%" overflow="visible" style="display: block;" viewBox="0 0 50.7247 50.7247" fill="none" xmlns="http://www.w3.org/2000/svg">
<g id="Icon">
<path d="M21.5186 21.5289C21.7862 21.2614 22.0746 21.0274 22.3789 20.8274C24.4856 19.4349 27.3499 19.6666 29.205 21.5217C31.3245 23.6412 31.3245 27.0774 29.205 29.1968C28.8739 29.528 28.5108 29.8078 28.1254 30.0354C26.0427 31.2727 23.3102 30.9956 21.5186 29.204C19.3992 27.0846 19.3992 23.6484 21.5186 21.5289Z" fill="var(--fill-0, black)"/>
<path fill-rule="evenodd" clip-rule="evenodd" d="M7.42846 7.42846C17.3331 -2.47615 33.3916 -2.47615 43.2963 7.42846C53.2009 17.3331 53.2009 33.3916 43.2963 43.2963C33.3916 53.2009 17.3331 53.2009 7.42846 43.2963C-2.47615 33.3916 -2.47615 17.3331 7.42846 7.42846ZM12.4209 20.098L12.4384 20.1155C11.7832 21.7304 11.4206 23.4942 11.4205 25.3448L11.4185 25.3469C11.4185 27.2006 11.784 28.9677 12.4394 30.5855C12.4527 30.6201 12.466 30.6532 12.4806 30.6865L12.4456 30.7215L12.4538 30.7421L12.4178 30.7782L19.9754 30.7411L19.9424 37.4251L19.9517 38.3018L20.0166 38.2369C20.059 38.2547 20.105 38.2696 20.1474 38.2874C21.7639 38.9413 23.5314 39.3065 25.3809 39.3052C27.2304 39.3038 28.9949 38.9423 30.6113 38.2884L30.6236 38.3008C30.6718 38.2811 30.7206 38.2616 30.7689 38.242L30.7699 30.7802L37.8794 30.7792L38.24 30.7751C38.2605 30.726 38.2818 30.6764 38.3018 30.6267L38.2853 30.6103C38.9405 28.9953 39.3031 27.2315 39.3032 25.3809L39.3052 25.3788C39.3052 23.5252 38.9397 21.7581 38.2843 20.1402C38.271 20.1057 38.2577 20.0726 38.2431 20.0393L38.2781 20.0042L38.2699 19.9836L38.3059 19.9476L30.7483 19.9847L30.7802 13.2625L30.772 12.424L30.7071 12.4889C30.6647 12.4711 30.6187 12.4561 30.5763 12.4384C28.9598 11.7844 27.1923 11.4192 25.3428 11.4205C23.4933 11.4219 21.7288 11.7835 20.1124 12.4373L20.099 12.424C20.0504 12.4438 20.0014 12.464 19.9527 12.4837L19.9538 19.9455L12.7948 19.9465L12.4816 19.9507C12.4613 19.9994 12.4407 20.0487 12.4209 20.098Z" fill="var(--fill-0, black)"/>
</g>
</svg>
