<svg preserveAspectRatio="none" width="100%" height="100%" overflow="visible" style="display: block;" viewBox="0 0 58.5677 58.5677" fill="none" xmlns="http://www.w3.org/2000/svg">
<g id="Thumbnail">
<g clip-path="url(#clip0_0_27)">
<path id="Background" opacity="0.12" d="M58.5672 29.2847C58.5672 13.1116 45.4564 0.000816231 29.2834 0.000816231C13.1103 0.000816231 -0.000497391 13.1116 -0.000497391 29.2847C-0.000497391 45.4577 13.1103 58.5685 29.2834 58.5685C45.4564 58.5685 58.5672 45.4577 58.5672 29.2847Z" fill="var(--fill-0, black)"/>
<g id="Thumbnail_2">
<g clip-path="url(#clip1_0_27)">
<path id="Union" d="M46.2976 18.7139L56.8718 29.288C56.8588 29.2962 56.8447 29.3034 56.8317 29.3115C56.8447 29.3196 56.8588 29.3268 56.8718 29.335L46.2341 39.9726L46.2189 39.9574C46.2008 39.986 46.184 40.0153 46.1657 40.0438L35.3899 29.268L46.163 18.495C46.2093 18.5671 46.2523 18.6412 46.2976 18.7139ZM39.9716 46.097C39.9263 46.126 39.879 46.1526 39.8335 46.1812L39.906 46.2537L29.2663 56.8935L18.6259 46.253L18.6445 46.2344C18.6172 46.2174 18.5889 46.2018 18.5616 46.1847L29.3105 35.4358L39.9716 46.097ZM26.3281 26.1516C28.0115 24.4684 30.7421 24.4683 32.4255 26.1516C33.9911 27.7173 34.0993 30.1879 32.7528 31.8803C32.6167 32.0704 32.4644 32.2529 32.2936 32.4237C30.6102 34.1071 27.8797 34.1069 26.1962 32.4237C24.6263 30.8538 24.5198 28.3733 25.8778 26.6805C26.0114 26.4955 26.1615 26.3182 26.3281 26.1516ZM12.4035 18.6186C12.4211 18.5907 12.4381 18.5621 12.4559 18.5343L23.2317 29.3101L12.458 40.0838C12.4085 40.0067 12.362 39.9274 12.3137 39.8497L1.75404 29.2901C1.76696 29.282 1.78117 29.2747 1.79409 29.2666C1.77962 29.2575 1.76434 29.2495 1.74989 29.2404L12.3876 18.6027L12.4035 18.6186ZM39.9979 12.3216L39.9792 12.3402C40.0058 12.3568 40.0335 12.3725 40.06 12.3893L29.3112 23.1381L18.6493 12.4763C18.6947 12.4472 18.7412 12.42 18.7867 12.3913L18.7177 12.3223L29.3581 1.68184L39.9979 12.3216Z" fill="var(--fill-0, black)"/>
</g>
</g>
</g>
<path d="M29.2842 0.610352C45.1201 0.610526 57.958 13.4482 57.958 29.2842C57.9578 45.12 45.12 57.9578 29.2842 57.958C13.4482 57.958 0.610526 45.1201 0.610352 29.2842C0.610352 13.4481 13.4481 0.610352 29.2842 0.610352Z" stroke="var(--stroke-0, black)" stroke-opacity="0.02" stroke-width="1.22016"/>
</g>
<defs>
<clipPath id="clip0_0_27">
<path d="M0 29.2839C0 13.1108 13.1108 0 29.2839 0V0C45.4569 0 58.5677 13.1108 58.5677 29.2839V29.2839C58.5677 45.4569 45.4569 58.5677 29.2839 58.5677V58.5677C13.1108 58.5677 0 45.4569 0 29.2839V29.2839Z" fill="white"/>
</clipPath>
<clipPath id="clip1_0_27">
<rect x="9.76087" y="9.76455" width="39.0451" height="39.0456" rx="19.5226" fill="white"/>
</clipPath>
</defs>
</svg>
